<mxfile host="Electron" agent="Mozilla/5.0 (Windows NT 10.0; Win64; x64) AppleWebKit/537.36 (KHTML, like Gecko) draw.io/24.7.17 Chrome/128.0.6613.36 Electron/32.0.1 Safari/537.36" version="24.7.17">
  <diagram name="Page-1" id="rTdlN1BzANwkkNAZ9qLR">
    <mxGraphModel dx="2204" dy="1906" grid="1" gridSize="10" guides="1" tooltips="1" connect="1" arrows="1" fold="1" page="1" pageScale="1" pageWidth="850" pageHeight="1100" math="0" shadow="0">
      <root>
        <mxCell id="0" />
        <mxCell id="1" parent="0" />
        <mxCell id="N-ZbYUrMgR0X2PzOAo4T-1" value="Lab" style="rounded=0;whiteSpace=wrap;html=1;" parent="1" vertex="1">
          <mxGeometry y="210" width="120" height="30" as="geometry" />
        </mxCell>
        <mxCell id="N-ZbYUrMgR0X2PzOAo4T-2" value="Banner" style="rounded=0;whiteSpace=wrap;html=1;" parent="1" vertex="1">
          <mxGeometry x="-10" y="580" width="120" height="30" as="geometry" />
        </mxCell>
        <mxCell id="N-ZbYUrMgR0X2PzOAo4T-5" value="Account" style="rounded=0;whiteSpace=wrap;html=1;" parent="1" vertex="1">
          <mxGeometry x="230" y="40" width="120" height="30" as="geometry" />
        </mxCell>
        <mxCell id="N-ZbYUrMgR0X2PzOAo4T-6" value="Service Management" style="rounded=0;whiteSpace=wrap;html=1;" parent="1" vertex="1">
          <mxGeometry x="1250" y="390" width="120" height="20" as="geometry" />
        </mxCell>
        <mxCell id="N-ZbYUrMgR0X2PzOAo4T-7" value="Faqs" style="rounded=0;whiteSpace=wrap;html=1;" parent="1" vertex="1">
          <mxGeometry x="940" y="590" width="120" height="35" as="geometry" />
        </mxCell>
        <mxCell id="N-ZbYUrMgR0X2PzOAo4T-8" value="Booking" style="rounded=0;whiteSpace=wrap;html=1;" parent="1" vertex="1">
          <mxGeometry x="940" y="130" width="120" height="35" as="geometry" />
        </mxCell>
        <mxCell id="N-ZbYUrMgR0X2PzOAo4T-10" value="Team" style="rounded=0;whiteSpace=wrap;html=1;" parent="1" vertex="1">
          <mxGeometry x="750" y="-55" width="120" height="20" as="geometry" />
        </mxCell>
        <mxCell id="N-ZbYUrMgR0X2PzOAo4T-11" value="SocialMedia" style="rounded=0;whiteSpace=wrap;html=1;" parent="1" vertex="1">
          <mxGeometry x="610" y="790" width="120" height="40" as="geometry" />
        </mxCell>
        <mxCell id="N-ZbYUrMgR0X2PzOAo4T-12" value="Email" style="ellipse;whiteSpace=wrap;html=1;aspect=fixed;" parent="1" vertex="1">
          <mxGeometry x="290" y="-60" width="60" height="60" as="geometry" />
        </mxCell>
        <mxCell id="N-ZbYUrMgR0X2PzOAo4T-13" value="PhoneNo" style="ellipse;whiteSpace=wrap;html=1;aspect=fixed;" parent="1" vertex="1">
          <mxGeometry x="360" y="-50" width="50" height="50" as="geometry" />
        </mxCell>
        <mxCell id="N-ZbYUrMgR0X2PzOAo4T-14" value="location" style="ellipse;whiteSpace=wrap;html=1;aspect=fixed;" parent="1" vertex="1">
          <mxGeometry x="-220" y="250" width="80" height="80" as="geometry" />
        </mxCell>
        <mxCell id="N-ZbYUrMgR0X2PzOAo4T-15" value="Last_name" style="ellipse;whiteSpace=wrap;html=1;aspect=fixed;" parent="1" vertex="1">
          <mxGeometry x="250" y="-140" width="60" height="60" as="geometry" />
        </mxCell>
        <mxCell id="N-ZbYUrMgR0X2PzOAo4T-16" value="Password" style="ellipse;whiteSpace=wrap;html=1;aspect=fixed;" parent="1" vertex="1">
          <mxGeometry x="150" y="-55" width="60" height="60" as="geometry" />
        </mxCell>
        <mxCell id="N-ZbYUrMgR0X2PzOAo4T-17" value="First_name" style="ellipse;whiteSpace=wrap;html=1;aspect=fixed;" parent="1" vertex="1">
          <mxGeometry x="160" y="-140" width="60" height="60" as="geometry" />
        </mxCell>
        <mxCell id="N-ZbYUrMgR0X2PzOAo4T-18" value="UserName" style="ellipse;whiteSpace=wrap;html=1;aspect=fixed;" parent="1" vertex="1">
          <mxGeometry x="220" y="-60" width="60" height="60" as="geometry" />
        </mxCell>
        <mxCell id="N-ZbYUrMgR0X2PzOAo4T-21" value="" style="endArrow=none;html=1;rounded=0;exitX=0.25;exitY=0;exitDx=0;exitDy=0;" parent="1" source="N-ZbYUrMgR0X2PzOAo4T-5" target="N-ZbYUrMgR0X2PzOAo4T-16" edge="1">
          <mxGeometry width="50" height="50" relative="1" as="geometry">
            <mxPoint x="115" y="60" as="sourcePoint" />
            <mxPoint x="165" y="10" as="targetPoint" />
          </mxGeometry>
        </mxCell>
        <mxCell id="N-ZbYUrMgR0X2PzOAo4T-24" value="" style="endArrow=none;html=1;rounded=0;entryX=0.5;entryY=1;entryDx=0;entryDy=0;exitX=0.75;exitY=0;exitDx=0;exitDy=0;" parent="1" source="N-ZbYUrMgR0X2PzOAo4T-5" target="N-ZbYUrMgR0X2PzOAo4T-12" edge="1">
          <mxGeometry width="50" height="50" relative="1" as="geometry">
            <mxPoint x="330" y="40" as="sourcePoint" />
            <mxPoint x="340" as="targetPoint" />
          </mxGeometry>
        </mxCell>
        <mxCell id="N-ZbYUrMgR0X2PzOAo4T-27" value="" style="endArrow=none;html=1;rounded=0;exitX=0.5;exitY=0;exitDx=0;exitDy=0;" parent="1" source="N-ZbYUrMgR0X2PzOAo4T-5" edge="1">
          <mxGeometry width="50" height="50" relative="1" as="geometry">
            <mxPoint x="200" y="50" as="sourcePoint" />
            <mxPoint x="250" as="targetPoint" />
          </mxGeometry>
        </mxCell>
        <mxCell id="N-ZbYUrMgR0X2PzOAo4T-28" value="" style="endArrow=none;html=1;rounded=0;exitX=1;exitY=0;exitDx=0;exitDy=0;" parent="1" source="N-ZbYUrMgR0X2PzOAo4T-5" edge="1">
          <mxGeometry width="50" height="50" relative="1" as="geometry">
            <mxPoint x="330" y="50" as="sourcePoint" />
            <mxPoint x="380" as="targetPoint" />
          </mxGeometry>
        </mxCell>
        <mxCell id="N-ZbYUrMgR0X2PzOAo4T-30" value="" style="endArrow=none;html=1;rounded=0;exitX=0.252;exitY=0.062;exitDx=0;exitDy=0;exitPerimeter=0;" parent="1" source="N-ZbYUrMgR0X2PzOAo4T-18" target="N-ZbYUrMgR0X2PzOAo4T-17" edge="1">
          <mxGeometry width="50" height="50" relative="1" as="geometry">
            <mxPoint x="280" y="-20" as="sourcePoint" />
            <mxPoint x="330" y="-70" as="targetPoint" />
          </mxGeometry>
        </mxCell>
        <mxCell id="N-ZbYUrMgR0X2PzOAo4T-31" value="" style="endArrow=none;html=1;rounded=0;entryX=0.28;entryY=0.944;entryDx=0;entryDy=0;entryPerimeter=0;exitX=0.591;exitY=0.01;exitDx=0;exitDy=0;exitPerimeter=0;" parent="1" source="N-ZbYUrMgR0X2PzOAo4T-18" target="N-ZbYUrMgR0X2PzOAo4T-15" edge="1">
          <mxGeometry width="50" height="50" relative="1" as="geometry">
            <mxPoint x="257" y="-60" as="sourcePoint" />
            <mxPoint x="288.06" y="-110" as="targetPoint" />
          </mxGeometry>
        </mxCell>
        <mxCell id="N-ZbYUrMgR0X2PzOAo4T-32" value="Branch type" style="ellipse;whiteSpace=wrap;html=1;aspect=fixed;" parent="1" vertex="1">
          <mxGeometry x="-10" y="290" width="80" height="80" as="geometry" />
        </mxCell>
        <mxCell id="N-ZbYUrMgR0X2PzOAo4T-33" value="Capacity" style="ellipse;whiteSpace=wrap;html=1;aspect=fixed;" parent="1" vertex="1">
          <mxGeometry x="-240" y="120" width="80" height="80" as="geometry" />
        </mxCell>
        <mxCell id="N-ZbYUrMgR0X2PzOAo4T-34" value="Lab Name" style="ellipse;whiteSpace=wrap;html=1;aspect=fixed;" parent="1" vertex="1">
          <mxGeometry x="-210" y="40" width="80" height="80" as="geometry" />
        </mxCell>
        <mxCell id="N-ZbYUrMgR0X2PzOAo4T-35" value="labHead" style="ellipse;whiteSpace=wrap;html=1;aspect=fixed;" parent="1" vertex="1">
          <mxGeometry x="-100" y="280" width="80" height="80" as="geometry" />
        </mxCell>
        <mxCell id="N-ZbYUrMgR0X2PzOAo4T-36" value="PhoneNo" style="ellipse;whiteSpace=wrap;html=1;aspect=fixed;" parent="1" vertex="1">
          <mxGeometry x="-150" y="185" width="80" height="80" as="geometry" />
        </mxCell>
        <mxCell id="N-ZbYUrMgR0X2PzOAo4T-37" value="Email" style="ellipse;whiteSpace=wrap;html=1;aspect=fixed;" parent="1" vertex="1">
          <mxGeometry x="-120" y="40" width="80" height="80" as="geometry" />
        </mxCell>
        <mxCell id="N-ZbYUrMgR0X2PzOAo4T-38" value="LabCode" style="ellipse;whiteSpace=wrap;html=1;aspect=fixed;" parent="1" vertex="1">
          <mxGeometry x="-30" y="60" width="80" height="80" as="geometry" />
        </mxCell>
        <mxCell id="N-ZbYUrMgR0X2PzOAo4T-39" value="slug" style="ellipse;whiteSpace=wrap;html=1;aspect=fixed;" parent="1" vertex="1">
          <mxGeometry x="60" y="60" width="80" height="80" as="geometry" />
        </mxCell>
        <mxCell id="N-ZbYUrMgR0X2PzOAo4T-40" style="edgeStyle=orthogonalEdgeStyle;rounded=0;orthogonalLoop=1;jettySize=auto;html=1;exitX=0.5;exitY=1;exitDx=0;exitDy=0;" parent="1" source="N-ZbYUrMgR0X2PzOAo4T-1" target="N-ZbYUrMgR0X2PzOAo4T-1" edge="1">
          <mxGeometry relative="1" as="geometry" />
        </mxCell>
        <mxCell id="N-ZbYUrMgR0X2PzOAo4T-43" value="" style="endArrow=none;html=1;rounded=0;exitX=0;exitY=0;exitDx=0;exitDy=0;entryX=0.878;entryY=0.821;entryDx=0;entryDy=0;entryPerimeter=0;" parent="1" source="N-ZbYUrMgR0X2PzOAo4T-1" target="N-ZbYUrMgR0X2PzOAo4T-34" edge="1">
          <mxGeometry width="50" height="50" relative="1" as="geometry">
            <mxPoint x="-215" y="140" as="sourcePoint" />
            <mxPoint x="-165" y="90" as="targetPoint" />
          </mxGeometry>
        </mxCell>
        <mxCell id="N-ZbYUrMgR0X2PzOAo4T-44" value="" style="endArrow=none;html=1;rounded=0;exitX=1;exitY=0.5;exitDx=0;exitDy=0;" parent="1" source="N-ZbYUrMgR0X2PzOAo4T-36" edge="1">
          <mxGeometry width="50" height="50" relative="1" as="geometry">
            <mxPoint x="-50" y="270" as="sourcePoint" />
            <mxPoint y="220" as="targetPoint" />
          </mxGeometry>
        </mxCell>
        <mxCell id="N-ZbYUrMgR0X2PzOAo4T-45" value="" style="endArrow=none;html=1;rounded=0;exitX=0.988;exitY=0.634;exitDx=0;exitDy=0;exitPerimeter=0;" parent="1" source="N-ZbYUrMgR0X2PzOAo4T-14" edge="1">
          <mxGeometry width="50" height="50" relative="1" as="geometry">
            <mxPoint x="-50" y="290" as="sourcePoint" />
            <mxPoint y="240" as="targetPoint" />
          </mxGeometry>
        </mxCell>
        <mxCell id="N-ZbYUrMgR0X2PzOAo4T-46" value="" style="endArrow=none;html=1;rounded=0;exitX=0.924;exitY=0.223;exitDx=0;exitDy=0;exitPerimeter=0;entryX=0.313;entryY=1.007;entryDx=0;entryDy=0;entryPerimeter=0;" parent="1" source="N-ZbYUrMgR0X2PzOAo4T-35" target="N-ZbYUrMgR0X2PzOAo4T-1" edge="1">
          <mxGeometry width="50" height="50" relative="1" as="geometry">
            <mxPoint x="-15" y="295" as="sourcePoint" />
            <mxPoint x="35" y="245" as="targetPoint" />
          </mxGeometry>
        </mxCell>
        <mxCell id="N-ZbYUrMgR0X2PzOAo4T-47" value="" style="endArrow=none;html=1;rounded=0;exitX=0.711;exitY=0.057;exitDx=0;exitDy=0;exitPerimeter=0;" parent="1" source="N-ZbYUrMgR0X2PzOAo4T-32" edge="1">
          <mxGeometry width="50" height="50" relative="1" as="geometry">
            <mxPoint x="20" y="290" as="sourcePoint" />
            <mxPoint x="70" y="240" as="targetPoint" />
          </mxGeometry>
        </mxCell>
        <mxCell id="N-ZbYUrMgR0X2PzOAo4T-48" value="" style="endArrow=none;html=1;rounded=0;exitX=0.25;exitY=0;exitDx=0;exitDy=0;entryX=0.647;entryY=0.978;entryDx=0;entryDy=0;entryPerimeter=0;" parent="1" source="N-ZbYUrMgR0X2PzOAo4T-1" target="N-ZbYUrMgR0X2PzOAo4T-38" edge="1">
          <mxGeometry width="50" height="50" relative="1" as="geometry">
            <mxPoint x="-55" y="230" as="sourcePoint" />
            <mxPoint x="-5" y="180" as="targetPoint" />
          </mxGeometry>
        </mxCell>
        <mxCell id="N-ZbYUrMgR0X2PzOAo4T-50" value="" style="endArrow=none;html=1;rounded=0;" parent="1" target="N-ZbYUrMgR0X2PzOAo4T-39" edge="1">
          <mxGeometry width="50" height="50" relative="1" as="geometry">
            <mxPoint x="110" y="210" as="sourcePoint" />
            <mxPoint x="160" y="160" as="targetPoint" />
          </mxGeometry>
        </mxCell>
        <mxCell id="N-ZbYUrMgR0X2PzOAo4T-52" value="" style="endArrow=none;html=1;rounded=0;entryX=0;entryY=0;entryDx=0;entryDy=0;exitX=0.995;exitY=0.592;exitDx=0;exitDy=0;exitPerimeter=0;" parent="1" source="N-ZbYUrMgR0X2PzOAo4T-33" target="N-ZbYUrMgR0X2PzOAo4T-1" edge="1">
          <mxGeometry width="50" height="50" relative="1" as="geometry">
            <mxPoint x="-160" y="170" as="sourcePoint" />
            <mxPoint x="-130" y="110" as="targetPoint" />
          </mxGeometry>
        </mxCell>
        <mxCell id="N-ZbYUrMgR0X2PzOAo4T-53" value="" style="endArrow=none;html=1;rounded=0;exitX=0.167;exitY=0.067;exitDx=0;exitDy=0;exitPerimeter=0;" parent="1" source="N-ZbYUrMgR0X2PzOAo4T-1" target="N-ZbYUrMgR0X2PzOAo4T-37" edge="1">
          <mxGeometry width="50" height="50" relative="1" as="geometry">
            <mxPoint x="130" y="280" as="sourcePoint" />
            <mxPoint x="180" y="230" as="targetPoint" />
          </mxGeometry>
        </mxCell>
        <mxCell id="N-ZbYUrMgR0X2PzOAo4T-54" value="Date" style="ellipse;whiteSpace=wrap;html=1;aspect=fixed;" parent="1" vertex="1">
          <mxGeometry x="40" y="740" width="70" height="70" as="geometry" />
        </mxCell>
        <mxCell id="N-ZbYUrMgR0X2PzOAo4T-55" value="Video_link" style="ellipse;whiteSpace=wrap;html=1;aspect=fixed;" parent="1" vertex="1">
          <mxGeometry x="-10" y="660" width="70" height="70" as="geometry" />
        </mxCell>
        <mxCell id="N-ZbYUrMgR0X2PzOAo4T-56" value="Image" style="ellipse;whiteSpace=wrap;html=1;aspect=fixed;" parent="1" vertex="1">
          <mxGeometry x="-120" y="580" width="70" height="70" as="geometry" />
        </mxCell>
        <mxCell id="N-ZbYUrMgR0X2PzOAo4T-58" value="Image_link" style="ellipse;whiteSpace=wrap;html=1;aspect=fixed;" parent="1" vertex="1">
          <mxGeometry x="100" y="680" width="70" height="70" as="geometry" />
        </mxCell>
        <mxCell id="N-ZbYUrMgR0X2PzOAo4T-59" value="Video" style="ellipse;whiteSpace=wrap;html=1;aspect=fixed;" parent="1" vertex="1">
          <mxGeometry x="-90" y="665" width="60" height="60" as="geometry" />
        </mxCell>
        <mxCell id="N-ZbYUrMgR0X2PzOAo4T-60" value="Created_date" style="ellipse;whiteSpace=wrap;html=1;aspect=fixed;" parent="1" vertex="1">
          <mxGeometry x="110" y="820" width="70" height="70" as="geometry" />
        </mxCell>
        <mxCell id="N-ZbYUrMgR0X2PzOAo4T-61" value="Updated_date" style="ellipse;whiteSpace=wrap;html=1;aspect=fixed;" parent="1" vertex="1">
          <mxGeometry x="22.5" y="830" width="75" height="75" as="geometry" />
        </mxCell>
        <mxCell id="N-ZbYUrMgR0X2PzOAo4T-63" value="" style="endArrow=none;html=1;rounded=0;entryX=0.958;entryY=0.988;entryDx=0;entryDy=0;entryPerimeter=0;exitX=0.288;exitY=0.032;exitDx=0;exitDy=0;exitPerimeter=0;" parent="1" source="N-ZbYUrMgR0X2PzOAo4T-58" target="N-ZbYUrMgR0X2PzOAo4T-2" edge="1">
          <mxGeometry width="50" height="50" relative="1" as="geometry">
            <mxPoint x="35" y="680" as="sourcePoint" />
            <mxPoint x="85" y="630" as="targetPoint" />
          </mxGeometry>
        </mxCell>
        <mxCell id="N-ZbYUrMgR0X2PzOAo4T-64" value="" style="endArrow=none;html=1;rounded=0;exitX=0.5;exitY=0;exitDx=0;exitDy=0;entryX=0.75;entryY=1;entryDx=0;entryDy=0;" parent="1" source="N-ZbYUrMgR0X2PzOAo4T-54" target="N-ZbYUrMgR0X2PzOAo4T-2" edge="1">
          <mxGeometry width="50" height="50" relative="1" as="geometry">
            <mxPoint y="670" as="sourcePoint" />
            <mxPoint x="50" y="620" as="targetPoint" />
          </mxGeometry>
        </mxCell>
        <mxCell id="N-ZbYUrMgR0X2PzOAo4T-65" value="" style="endArrow=none;html=1;rounded=0;exitX=0.5;exitY=0;exitDx=0;exitDy=0;" parent="1" source="N-ZbYUrMgR0X2PzOAo4T-55" edge="1">
          <mxGeometry width="50" height="50" relative="1" as="geometry">
            <mxPoint x="-15" y="660" as="sourcePoint" />
            <mxPoint x="35" y="610" as="targetPoint" />
          </mxGeometry>
        </mxCell>
        <mxCell id="N-ZbYUrMgR0X2PzOAo4T-66" value="" style="endArrow=none;html=1;rounded=0;" parent="1" source="N-ZbYUrMgR0X2PzOAo4T-59" edge="1">
          <mxGeometry width="50" height="50" relative="1" as="geometry">
            <mxPoint x="-40" y="660" as="sourcePoint" />
            <mxPoint x="10" y="610" as="targetPoint" />
          </mxGeometry>
        </mxCell>
        <mxCell id="N-ZbYUrMgR0X2PzOAo4T-67" value="" style="endArrow=none;html=1;rounded=0;exitX=1;exitY=0.5;exitDx=0;exitDy=0;" parent="1" source="N-ZbYUrMgR0X2PzOAo4T-56" edge="1">
          <mxGeometry width="50" height="50" relative="1" as="geometry">
            <mxPoint x="-70" y="607" as="sourcePoint" />
            <mxPoint x="-10" y="595" as="targetPoint" />
          </mxGeometry>
        </mxCell>
        <mxCell id="N-ZbYUrMgR0X2PzOAo4T-68" value="" style="endArrow=none;html=1;rounded=0;exitX=0;exitY=0;exitDx=0;exitDy=0;entryX=0.768;entryY=0.936;entryDx=0;entryDy=0;entryPerimeter=0;" parent="1" source="N-ZbYUrMgR0X2PzOAo4T-60" target="N-ZbYUrMgR0X2PzOAo4T-54" edge="1">
          <mxGeometry width="50" height="50" relative="1" as="geometry">
            <mxPoint x="50" y="910" as="sourcePoint" />
            <mxPoint x="100" y="860" as="targetPoint" />
          </mxGeometry>
        </mxCell>
        <mxCell id="N-ZbYUrMgR0X2PzOAo4T-69" value="" style="endArrow=none;html=1;rounded=0;exitX=0.5;exitY=0;exitDx=0;exitDy=0;entryX=0.5;entryY=1;entryDx=0;entryDy=0;" parent="1" source="N-ZbYUrMgR0X2PzOAo4T-61" target="N-ZbYUrMgR0X2PzOAo4T-54" edge="1">
          <mxGeometry width="50" height="50" relative="1" as="geometry">
            <mxPoint y="900" as="sourcePoint" />
            <mxPoint x="50" y="850" as="targetPoint" />
          </mxGeometry>
        </mxCell>
        <mxCell id="N-ZbYUrMgR0X2PzOAo4T-73" value="Date" style="ellipse;whiteSpace=wrap;html=1;aspect=fixed;" parent="1" vertex="1">
          <mxGeometry x="1050" y="670" width="75" height="75" as="geometry" />
        </mxCell>
        <mxCell id="N-ZbYUrMgR0X2PzOAo4T-74" value="Update_Date" style="ellipse;whiteSpace=wrap;html=1;aspect=fixed;" parent="1" vertex="1">
          <mxGeometry x="1090" y="760" width="80" height="80" as="geometry" />
        </mxCell>
        <mxCell id="N-ZbYUrMgR0X2PzOAo4T-75" value="Title" style="ellipse;whiteSpace=wrap;html=1;aspect=fixed;" parent="1" vertex="1">
          <mxGeometry x="860" y="650" width="75" height="75" as="geometry" />
        </mxCell>
        <mxCell id="N-ZbYUrMgR0X2PzOAo4T-76" value="Create_Date" style="ellipse;whiteSpace=wrap;html=1;aspect=fixed;" parent="1" vertex="1">
          <mxGeometry x="1000" y="760" width="80" height="80" as="geometry" />
        </mxCell>
        <mxCell id="N-ZbYUrMgR0X2PzOAo4T-77" value="Description" style="ellipse;whiteSpace=wrap;html=1;aspect=fixed;" parent="1" vertex="1">
          <mxGeometry x="950" y="655" width="80" height="80" as="geometry" />
        </mxCell>
        <mxCell id="N-ZbYUrMgR0X2PzOAo4T-78" value="" style="endArrow=none;html=1;rounded=0;exitX=0.644;exitY=0.025;exitDx=0;exitDy=0;exitPerimeter=0;entryX=0;entryY=1;entryDx=0;entryDy=0;" parent="1" source="N-ZbYUrMgR0X2PzOAo4T-76" target="N-ZbYUrMgR0X2PzOAo4T-73" edge="1">
          <mxGeometry width="50" height="50" relative="1" as="geometry">
            <mxPoint x="1015" y="785" as="sourcePoint" />
            <mxPoint x="1065" y="735" as="targetPoint" />
          </mxGeometry>
        </mxCell>
        <mxCell id="N-ZbYUrMgR0X2PzOAo4T-79" value="" style="endArrow=none;html=1;rounded=0;exitX=0.201;exitY=0.122;exitDx=0;exitDy=0;exitPerimeter=0;" parent="1" source="N-ZbYUrMgR0X2PzOAo4T-73" edge="1">
          <mxGeometry width="50" height="50" relative="1" as="geometry">
            <mxPoint x="990" y="675" as="sourcePoint" />
            <mxPoint x="1040" y="625" as="targetPoint" />
          </mxGeometry>
        </mxCell>
        <mxCell id="N-ZbYUrMgR0X2PzOAo4T-80" value="" style="endArrow=none;html=1;rounded=0;exitX=0.5;exitY=0;exitDx=0;exitDy=0;" parent="1" source="N-ZbYUrMgR0X2PzOAo4T-77" edge="1">
          <mxGeometry width="50" height="50" relative="1" as="geometry">
            <mxPoint x="950" y="675" as="sourcePoint" />
            <mxPoint x="1000" y="625" as="targetPoint" />
          </mxGeometry>
        </mxCell>
        <mxCell id="N-ZbYUrMgR0X2PzOAo4T-81" value="" style="endArrow=none;html=1;rounded=0;exitX=0.758;exitY=0.099;exitDx=0;exitDy=0;exitPerimeter=0;" parent="1" source="N-ZbYUrMgR0X2PzOAo4T-75" edge="1">
          <mxGeometry width="50" height="50" relative="1" as="geometry">
            <mxPoint x="900" y="675" as="sourcePoint" />
            <mxPoint x="950" y="625" as="targetPoint" />
          </mxGeometry>
        </mxCell>
        <mxCell id="N-ZbYUrMgR0X2PzOAo4T-82" value="" style="endArrow=none;html=1;rounded=0;entryX=1;entryY=1;entryDx=0;entryDy=0;" parent="1" target="N-ZbYUrMgR0X2PzOAo4T-73" edge="1">
          <mxGeometry width="50" height="50" relative="1" as="geometry">
            <mxPoint x="1121" y="760" as="sourcePoint" />
            <mxPoint x="1110" y="740" as="targetPoint" />
          </mxGeometry>
        </mxCell>
        <mxCell id="N-ZbYUrMgR0X2PzOAo4T-85" value="Service" style="ellipse;whiteSpace=wrap;html=1;aspect=fixed;" parent="1" vertex="1">
          <mxGeometry x="1210" y="420" width="60" height="60" as="geometry" />
        </mxCell>
        <mxCell id="N-ZbYUrMgR0X2PzOAo4T-86" value="Category" style="ellipse;whiteSpace=wrap;html=1;aspect=fixed;" parent="1" vertex="1">
          <mxGeometry x="1370" y="490" width="60" height="60" as="geometry" />
        </mxCell>
        <mxCell id="N-ZbYUrMgR0X2PzOAo4T-87" value="LabName" style="ellipse;whiteSpace=wrap;html=1;aspect=fixed;" parent="1" vertex="1">
          <mxGeometry x="1250" y="470" width="60" height="60" as="geometry" />
        </mxCell>
        <mxCell id="N-ZbYUrMgR0X2PzOAo4T-88" value="Price" style="ellipse;whiteSpace=wrap;html=1;aspect=fixed;" parent="1" vertex="1">
          <mxGeometry x="1310" y="440" width="60" height="60" as="geometry" />
        </mxCell>
        <mxCell id="N-ZbYUrMgR0X2PzOAo4T-89" value="Description" style="ellipse;whiteSpace=wrap;html=1;aspect=fixed;" parent="1" vertex="1">
          <mxGeometry x="1400" y="430" width="60" height="60" as="geometry" />
        </mxCell>
        <mxCell id="N-ZbYUrMgR0X2PzOAo4T-90" value="Linkden" style="ellipse;whiteSpace=wrap;html=1;aspect=fixed;" parent="1" vertex="1">
          <mxGeometry x="750" y="830" width="80" height="80" as="geometry" />
        </mxCell>
        <mxCell id="N-ZbYUrMgR0X2PzOAo4T-91" value="YouTube" style="ellipse;whiteSpace=wrap;html=1;aspect=fixed;" parent="1" vertex="1">
          <mxGeometry x="550" y="950" width="80" height="80" as="geometry" />
        </mxCell>
        <mxCell id="N-ZbYUrMgR0X2PzOAo4T-92" value="Twitter" style="ellipse;whiteSpace=wrap;html=1;aspect=fixed;" parent="1" vertex="1">
          <mxGeometry x="710" y="910" width="80" height="80" as="geometry" />
        </mxCell>
        <mxCell id="N-ZbYUrMgR0X2PzOAo4T-93" value="Instagram" style="ellipse;whiteSpace=wrap;html=1;aspect=fixed;" parent="1" vertex="1">
          <mxGeometry x="620" y="880" width="80" height="80" as="geometry" />
        </mxCell>
        <mxCell id="N-ZbYUrMgR0X2PzOAo4T-94" value="Facebook" style="ellipse;whiteSpace=wrap;html=1;aspect=fixed;" parent="1" vertex="1">
          <mxGeometry x="490" y="860" width="80" height="80" as="geometry" />
        </mxCell>
        <mxCell id="N-ZbYUrMgR0X2PzOAo4T-103" value="" style="endArrow=none;html=1;rounded=0;entryX=0.75;entryY=1;entryDx=0;entryDy=0;exitX=0;exitY=0;exitDx=0;exitDy=0;" parent="1" source="N-ZbYUrMgR0X2PzOAo4T-92" target="N-ZbYUrMgR0X2PzOAo4T-11" edge="1">
          <mxGeometry width="50" height="50" relative="1" as="geometry">
            <mxPoint x="680" y="880" as="sourcePoint" />
            <mxPoint x="730" y="830" as="targetPoint" />
          </mxGeometry>
        </mxCell>
        <mxCell id="N-ZbYUrMgR0X2PzOAo4T-104" value="" style="endArrow=none;html=1;rounded=0;entryX=0.336;entryY=1.05;entryDx=0;entryDy=0;entryPerimeter=0;exitX=0.5;exitY=0;exitDx=0;exitDy=0;" parent="1" source="N-ZbYUrMgR0X2PzOAo4T-93" target="N-ZbYUrMgR0X2PzOAo4T-11" edge="1">
          <mxGeometry width="50" height="50" relative="1" as="geometry">
            <mxPoint x="650" y="895" as="sourcePoint" />
            <mxPoint x="700" y="845" as="targetPoint" />
          </mxGeometry>
        </mxCell>
        <mxCell id="N-ZbYUrMgR0X2PzOAo4T-105" value="" style="endArrow=none;html=1;rounded=0;exitX=0.5;exitY=0;exitDx=0;exitDy=0;entryX=0.181;entryY=1.05;entryDx=0;entryDy=0;entryPerimeter=0;" parent="1" source="N-ZbYUrMgR0X2PzOAo4T-91" target="N-ZbYUrMgR0X2PzOAo4T-11" edge="1">
          <mxGeometry width="50" height="50" relative="1" as="geometry">
            <mxPoint x="590" y="880" as="sourcePoint" />
            <mxPoint x="640" y="830" as="targetPoint" />
          </mxGeometry>
        </mxCell>
        <mxCell id="N-ZbYUrMgR0X2PzOAo4T-106" value="" style="endArrow=none;html=1;rounded=0;entryX=0;entryY=0.5;entryDx=0;entryDy=0;exitX=1;exitY=0;exitDx=0;exitDy=0;" parent="1" source="N-ZbYUrMgR0X2PzOAo4T-94" target="N-ZbYUrMgR0X2PzOAo4T-11" edge="1">
          <mxGeometry width="50" height="50" relative="1" as="geometry">
            <mxPoint x="540" y="880" as="sourcePoint" />
            <mxPoint x="590" y="830" as="targetPoint" />
          </mxGeometry>
        </mxCell>
        <mxCell id="N-ZbYUrMgR0X2PzOAo4T-108" value="" style="endArrow=none;html=1;rounded=0;exitX=1;exitY=0.75;exitDx=0;exitDy=0;entryX=0.078;entryY=0.231;entryDx=0;entryDy=0;entryPerimeter=0;" parent="1" source="N-ZbYUrMgR0X2PzOAo4T-11" target="N-ZbYUrMgR0X2PzOAo4T-90" edge="1">
          <mxGeometry width="50" height="50" relative="1" as="geometry">
            <mxPoint x="750" y="830" as="sourcePoint" />
            <mxPoint x="800" y="780" as="targetPoint" />
          </mxGeometry>
        </mxCell>
        <mxCell id="N-ZbYUrMgR0X2PzOAo4T-110" value="" style="endArrow=none;html=1;rounded=0;exitX=0.5;exitY=0;exitDx=0;exitDy=0;entryX=1;entryY=0.5;entryDx=0;entryDy=0;" parent="1" source="N-ZbYUrMgR0X2PzOAo4T-89" target="N-ZbYUrMgR0X2PzOAo4T-6" edge="1">
          <mxGeometry width="50" height="50" relative="1" as="geometry">
            <mxPoint x="1350" y="450" as="sourcePoint" />
            <mxPoint x="1400" y="400" as="targetPoint" />
          </mxGeometry>
        </mxCell>
        <mxCell id="N-ZbYUrMgR0X2PzOAo4T-111" value="" style="endArrow=none;html=1;rounded=0;exitX=0.559;exitY=0.005;exitDx=0;exitDy=0;exitPerimeter=0;" parent="1" source="N-ZbYUrMgR0X2PzOAo4T-86" edge="1">
          <mxGeometry width="50" height="50" relative="1" as="geometry">
            <mxPoint x="1320" y="460" as="sourcePoint" />
            <mxPoint x="1370" y="410" as="targetPoint" />
          </mxGeometry>
        </mxCell>
        <mxCell id="N-ZbYUrMgR0X2PzOAo4T-112" value="" style="endArrow=none;html=1;rounded=0;exitX=0.5;exitY=0;exitDx=0;exitDy=0;entryX=0.75;entryY=1;entryDx=0;entryDy=0;" parent="1" source="N-ZbYUrMgR0X2PzOAo4T-88" target="N-ZbYUrMgR0X2PzOAo4T-6" edge="1">
          <mxGeometry width="50" height="50" relative="1" as="geometry">
            <mxPoint x="1300" y="450" as="sourcePoint" />
            <mxPoint x="1350" y="400" as="targetPoint" />
          </mxGeometry>
        </mxCell>
        <mxCell id="N-ZbYUrMgR0X2PzOAo4T-113" value="" style="endArrow=none;html=1;rounded=0;exitX=0.5;exitY=0;exitDx=0;exitDy=0;entryX=0.25;entryY=1;entryDx=0;entryDy=0;" parent="1" source="N-ZbYUrMgR0X2PzOAo4T-87" target="N-ZbYUrMgR0X2PzOAo4T-6" edge="1">
          <mxGeometry width="50" height="50" relative="1" as="geometry">
            <mxPoint x="1250" y="460" as="sourcePoint" />
            <mxPoint x="1300" y="410" as="targetPoint" />
          </mxGeometry>
        </mxCell>
        <mxCell id="N-ZbYUrMgR0X2PzOAo4T-114" value="" style="endArrow=none;html=1;rounded=0;exitX=0.5;exitY=0;exitDx=0;exitDy=0;" parent="1" source="N-ZbYUrMgR0X2PzOAo4T-85" edge="1">
          <mxGeometry width="50" height="50" relative="1" as="geometry">
            <mxPoint x="1200" y="460" as="sourcePoint" />
            <mxPoint x="1250" y="410" as="targetPoint" />
          </mxGeometry>
        </mxCell>
        <mxCell id="N-ZbYUrMgR0X2PzOAo4T-116" value="Gender" style="ellipse;whiteSpace=wrap;html=1;aspect=fixed;" parent="1" vertex="1">
          <mxGeometry x="955" y="200" width="60" height="60" as="geometry" />
        </mxCell>
        <mxCell id="N-ZbYUrMgR0X2PzOAo4T-117" value="Date" style="ellipse;whiteSpace=wrap;html=1;aspect=fixed;" parent="1" vertex="1">
          <mxGeometry x="755" y="200" width="70" height="70" as="geometry" />
        </mxCell>
        <mxCell id="N-ZbYUrMgR0X2PzOAo4T-118" value="service&amp;nbsp;" style="ellipse;whiteSpace=wrap;html=1;aspect=fixed;" parent="1" vertex="1">
          <mxGeometry x="1155" y="195" width="55" height="55" as="geometry" />
        </mxCell>
        <mxCell id="N-ZbYUrMgR0X2PzOAo4T-119" value="Full Name" style="ellipse;whiteSpace=wrap;html=1;aspect=fixed;" parent="1" vertex="1">
          <mxGeometry x="1185" y="140" width="55" height="55" as="geometry" />
        </mxCell>
        <mxCell id="N-ZbYUrMgR0X2PzOAo4T-120" value="Email" style="ellipse;whiteSpace=wrap;html=1;aspect=fixed;" parent="1" vertex="1">
          <mxGeometry x="840" y="195" width="70" height="70" as="geometry" />
        </mxCell>
        <mxCell id="N-ZbYUrMgR0X2PzOAo4T-121" value="Phone Number" style="ellipse;whiteSpace=wrap;html=1;aspect=fixed;" parent="1" vertex="1">
          <mxGeometry x="1090" width="65" height="65" as="geometry" />
        </mxCell>
        <mxCell id="N-ZbYUrMgR0X2PzOAo4T-122" value="Address" style="ellipse;whiteSpace=wrap;html=1;aspect=fixed;" parent="1" vertex="1">
          <mxGeometry x="1125" y="90" width="60" height="60" as="geometry" />
        </mxCell>
        <mxCell id="N-ZbYUrMgR0X2PzOAo4T-123" value="total_price" style="ellipse;whiteSpace=wrap;html=1;aspect=fixed;" parent="1" vertex="1">
          <mxGeometry x="1015" width="65" height="65" as="geometry" />
        </mxCell>
        <mxCell id="N-ZbYUrMgR0X2PzOAo4T-124" value="payment_opt" style="ellipse;whiteSpace=wrap;html=1;aspect=fixed;" parent="1" vertex="1">
          <mxGeometry x="880" y="265" width="75" height="75" as="geometry" />
        </mxCell>
        <mxCell id="N-ZbYUrMgR0X2PzOAo4T-125" value="message" style="ellipse;whiteSpace=wrap;html=1;aspect=fixed;" parent="1" vertex="1">
          <mxGeometry x="770" y="120" width="70" height="70" as="geometry" />
        </mxCell>
        <mxCell id="N-ZbYUrMgR0X2PzOAo4T-126" value="payment" style="ellipse;whiteSpace=wrap;html=1;aspect=fixed;" parent="1" vertex="1">
          <mxGeometry x="1180" y="27.5" width="55" height="55" as="geometry" />
        </mxCell>
        <mxCell id="N-ZbYUrMgR0X2PzOAo4T-127" value="" style="endArrow=none;html=1;rounded=0;entryX=0.25;entryY=1;entryDx=0;entryDy=0;exitX=0.5;exitY=0;exitDx=0;exitDy=0;" parent="1" source="N-ZbYUrMgR0X2PzOAo4T-124" target="N-ZbYUrMgR0X2PzOAo4T-8" edge="1">
          <mxGeometry width="50" height="50" relative="1" as="geometry">
            <mxPoint x="880" y="305" as="sourcePoint" />
            <mxPoint x="930" y="255" as="targetPoint" />
          </mxGeometry>
        </mxCell>
        <mxCell id="N-ZbYUrMgR0X2PzOAo4T-128" value="" style="endArrow=none;html=1;rounded=0;entryX=0;entryY=1;entryDx=0;entryDy=0;exitX=1;exitY=0;exitDx=0;exitDy=0;" parent="1" source="N-ZbYUrMgR0X2PzOAo4T-120" target="N-ZbYUrMgR0X2PzOAo4T-8" edge="1">
          <mxGeometry width="50" height="50" relative="1" as="geometry">
            <mxPoint x="870" y="210" as="sourcePoint" />
            <mxPoint x="920" y="160" as="targetPoint" />
          </mxGeometry>
        </mxCell>
        <mxCell id="N-ZbYUrMgR0X2PzOAo4T-129" value="" style="endArrow=none;html=1;rounded=0;entryX=0;entryY=0.25;entryDx=0;entryDy=0;exitX=1;exitY=0;exitDx=0;exitDy=0;" parent="1" source="N-ZbYUrMgR0X2PzOAo4T-117" target="N-ZbYUrMgR0X2PzOAo4T-8" edge="1">
          <mxGeometry width="50" height="50" relative="1" as="geometry">
            <mxPoint x="750" y="250" as="sourcePoint" />
            <mxPoint x="800" y="200" as="targetPoint" />
          </mxGeometry>
        </mxCell>
        <mxCell id="N-ZbYUrMgR0X2PzOAo4T-130" value="" style="endArrow=none;html=1;rounded=0;entryX=0;entryY=0;entryDx=0;entryDy=0;exitX=1;exitY=0.5;exitDx=0;exitDy=0;" parent="1" source="N-ZbYUrMgR0X2PzOAo4T-125" target="N-ZbYUrMgR0X2PzOAo4T-8" edge="1">
          <mxGeometry width="50" height="50" relative="1" as="geometry">
            <mxPoint x="760" y="120" as="sourcePoint" />
            <mxPoint x="810" y="70" as="targetPoint" />
          </mxGeometry>
        </mxCell>
        <mxCell id="N-ZbYUrMgR0X2PzOAo4T-131" value="" style="endArrow=none;html=1;rounded=0;exitX=0.5;exitY=0;exitDx=0;exitDy=0;" parent="1" source="N-ZbYUrMgR0X2PzOAo4T-116" edge="1">
          <mxGeometry width="50" height="50" relative="1" as="geometry">
            <mxPoint x="950" y="215" as="sourcePoint" />
            <mxPoint x="1000" y="165" as="targetPoint" />
          </mxGeometry>
        </mxCell>
        <mxCell id="N-ZbYUrMgR0X2PzOAo4T-132" value="" style="endArrow=none;html=1;rounded=0;exitX=1;exitY=0.25;exitDx=0;exitDy=0;entryX=0;entryY=0.5;entryDx=0;entryDy=0;" parent="1" source="N-ZbYUrMgR0X2PzOAo4T-8" target="N-ZbYUrMgR0X2PzOAo4T-119" edge="1">
          <mxGeometry width="50" height="50" relative="1" as="geometry">
            <mxPoint x="1160" y="200" as="sourcePoint" />
            <mxPoint x="1210" y="150" as="targetPoint" />
          </mxGeometry>
        </mxCell>
        <mxCell id="N-ZbYUrMgR0X2PzOAo4T-133" value="" style="endArrow=none;html=1;rounded=0;exitX=1;exitY=0.25;exitDx=0;exitDy=0;entryX=0.084;entryY=0.191;entryDx=0;entryDy=0;entryPerimeter=0;" parent="1" source="N-ZbYUrMgR0X2PzOAo4T-8" target="N-ZbYUrMgR0X2PzOAo4T-118" edge="1">
          <mxGeometry width="50" height="50" relative="1" as="geometry">
            <mxPoint x="1105" y="260" as="sourcePoint" />
            <mxPoint x="1155" y="210" as="targetPoint" />
          </mxGeometry>
        </mxCell>
        <mxCell id="N-ZbYUrMgR0X2PzOAo4T-134" value="" style="endArrow=none;html=1;rounded=0;entryX=0;entryY=0.5;entryDx=0;entryDy=0;exitX=1;exitY=0;exitDx=0;exitDy=0;" parent="1" source="N-ZbYUrMgR0X2PzOAo4T-8" target="N-ZbYUrMgR0X2PzOAo4T-122" edge="1">
          <mxGeometry width="50" height="50" relative="1" as="geometry">
            <mxPoint x="1062.5" y="130" as="sourcePoint" />
            <mxPoint x="1112.5" y="80" as="targetPoint" />
          </mxGeometry>
        </mxCell>
        <mxCell id="N-ZbYUrMgR0X2PzOAo4T-135" value="" style="endArrow=none;html=1;rounded=0;entryX=0;entryY=0.5;entryDx=0;entryDy=0;exitX=1;exitY=0;exitDx=0;exitDy=0;" parent="1" source="N-ZbYUrMgR0X2PzOAo4T-8" target="N-ZbYUrMgR0X2PzOAo4T-126" edge="1">
          <mxGeometry width="50" height="50" relative="1" as="geometry">
            <mxPoint x="1050" y="115" as="sourcePoint" />
            <mxPoint x="1100" y="65" as="targetPoint" />
          </mxGeometry>
        </mxCell>
        <mxCell id="N-ZbYUrMgR0X2PzOAo4T-136" value="" style="endArrow=none;html=1;rounded=0;entryX=0.5;entryY=1;entryDx=0;entryDy=0;exitX=0.75;exitY=0;exitDx=0;exitDy=0;" parent="1" source="N-ZbYUrMgR0X2PzOAo4T-8" target="N-ZbYUrMgR0X2PzOAo4T-123" edge="1">
          <mxGeometry width="50" height="50" relative="1" as="geometry">
            <mxPoint x="990" y="115" as="sourcePoint" />
            <mxPoint x="1040" y="65" as="targetPoint" />
          </mxGeometry>
        </mxCell>
        <mxCell id="N-ZbYUrMgR0X2PzOAo4T-137" value="" style="endArrow=none;html=1;rounded=0;entryX=0;entryY=1;entryDx=0;entryDy=0;exitX=0.75;exitY=0;exitDx=0;exitDy=0;" parent="1" source="N-ZbYUrMgR0X2PzOAo4T-8" target="N-ZbYUrMgR0X2PzOAo4T-121" edge="1">
          <mxGeometry width="50" height="50" relative="1" as="geometry">
            <mxPoint x="1080" y="130" as="sourcePoint" />
            <mxPoint x="1130" y="80" as="targetPoint" />
          </mxGeometry>
        </mxCell>
        <mxCell id="N-ZbYUrMgR0X2PzOAo4T-138" value="Team Name" style="ellipse;whiteSpace=wrap;html=1;aspect=fixed;" parent="1" vertex="1">
          <mxGeometry x="905" y="-70" width="65" height="65" as="geometry" />
        </mxCell>
        <mxCell id="N-ZbYUrMgR0X2PzOAo4T-140" value="TeamMember" style="ellipse;whiteSpace=wrap;html=1;aspect=fixed;" parent="1" vertex="1">
          <mxGeometry x="935" y="-155" width="75" height="75" as="geometry" />
        </mxCell>
        <mxCell id="N-ZbYUrMgR0X2PzOAo4T-141" value="Email" style="ellipse;whiteSpace=wrap;html=1;aspect=fixed;" parent="1" vertex="1">
          <mxGeometry x="860" y="-210" width="60" height="60" as="geometry" />
        </mxCell>
        <mxCell id="N-ZbYUrMgR0X2PzOAo4T-143" value="Lab" style="ellipse;whiteSpace=wrap;html=1;aspect=fixed;" parent="1" vertex="1">
          <mxGeometry x="790" y="-200" width="60" height="60" as="geometry" />
        </mxCell>
        <mxCell id="N-ZbYUrMgR0X2PzOAo4T-144" value="phoneno" style="ellipse;whiteSpace=wrap;html=1;aspect=fixed;" parent="1" vertex="1">
          <mxGeometry x="867.5" y="-147.5" width="60" height="60" as="geometry" />
        </mxCell>
        <mxCell id="N-ZbYUrMgR0X2PzOAo4T-146" value="" style="endArrow=none;html=1;rounded=0;exitX=1;exitY=0;exitDx=0;exitDy=0;entryX=0;entryY=0;entryDx=0;entryDy=0;" parent="1" source="N-ZbYUrMgR0X2PzOAo4T-10" target="N-ZbYUrMgR0X2PzOAo4T-138" edge="1">
          <mxGeometry width="50" height="50" relative="1" as="geometry">
            <mxPoint x="860" y="30" as="sourcePoint" />
            <mxPoint x="910" y="-20" as="targetPoint" />
          </mxGeometry>
        </mxCell>
        <mxCell id="N-ZbYUrMgR0X2PzOAo4T-147" value="" style="endArrow=none;html=1;rounded=0;exitX=0.75;exitY=0;exitDx=0;exitDy=0;entryX=0;entryY=1;entryDx=0;entryDy=0;" parent="1" source="N-ZbYUrMgR0X2PzOAo4T-10" target="N-ZbYUrMgR0X2PzOAo4T-141" edge="1">
          <mxGeometry width="50" height="50" relative="1" as="geometry">
            <mxPoint x="830" y="-120" as="sourcePoint" />
            <mxPoint x="880" y="-170" as="targetPoint" />
          </mxGeometry>
        </mxCell>
        <mxCell id="N-ZbYUrMgR0X2PzOAo4T-148" value="" style="endArrow=none;html=1;rounded=0;entryX=0.5;entryY=1;entryDx=0;entryDy=0;exitX=0.867;exitY=-0.017;exitDx=0;exitDy=0;exitPerimeter=0;" parent="1" source="N-ZbYUrMgR0X2PzOAo4T-10" target="N-ZbYUrMgR0X2PzOAo4T-144" edge="1">
          <mxGeometry width="50" height="50" relative="1" as="geometry">
            <mxPoint x="850" y="-50" as="sourcePoint" />
            <mxPoint x="850" y="-90" as="targetPoint" />
          </mxGeometry>
        </mxCell>
        <mxCell id="N-ZbYUrMgR0X2PzOAo4T-149" value="" style="endArrow=none;html=1;rounded=0;exitX=0.5;exitY=0;exitDx=0;exitDy=0;entryX=0.5;entryY=1;entryDx=0;entryDy=0;" parent="1" source="N-ZbYUrMgR0X2PzOAo4T-10" target="N-ZbYUrMgR0X2PzOAo4T-143" edge="1">
          <mxGeometry width="50" height="50" relative="1" as="geometry">
            <mxPoint x="750" y="-95" as="sourcePoint" />
            <mxPoint x="800" y="-145" as="targetPoint" />
          </mxGeometry>
        </mxCell>
        <mxCell id="N-ZbYUrMgR0X2PzOAo4T-150" value="" style="endArrow=none;html=1;rounded=0;exitX=1;exitY=0;exitDx=0;exitDy=0;" parent="1" source="N-ZbYUrMgR0X2PzOAo4T-10" edge="1">
          <mxGeometry width="50" height="50" relative="1" as="geometry">
            <mxPoint x="890" y="-50" as="sourcePoint" />
            <mxPoint x="940" y="-100" as="targetPoint" />
          </mxGeometry>
        </mxCell>
        <mxCell id="N-ZbYUrMgR0X2PzOAo4T-151" value="has" style="rhombus;whiteSpace=wrap;html=1;" parent="1" vertex="1">
          <mxGeometry x="90" y="410" width="80" height="80" as="geometry" />
        </mxCell>
        <mxCell id="N-ZbYUrMgR0X2PzOAo4T-152" value="" style="endArrow=none;html=1;rounded=0;entryX=0.75;entryY=1;entryDx=0;entryDy=0;" parent="1" target="N-ZbYUrMgR0X2PzOAo4T-1" edge="1">
          <mxGeometry width="50" height="50" relative="1" as="geometry">
            <mxPoint x="130" y="410" as="sourcePoint" />
            <mxPoint x="180" y="360" as="targetPoint" />
          </mxGeometry>
        </mxCell>
        <mxCell id="N-ZbYUrMgR0X2PzOAo4T-153" value="" style="endArrow=none;html=1;rounded=0;entryX=0.5;entryY=1;entryDx=0;entryDy=0;" parent="1" target="N-ZbYUrMgR0X2PzOAo4T-151" edge="1">
          <mxGeometry width="50" height="50" relative="1" as="geometry">
            <mxPoint x="38" y="580" as="sourcePoint" />
            <mxPoint x="97.5" y="530" as="targetPoint" />
          </mxGeometry>
        </mxCell>
        <mxCell id="N-ZbYUrMgR0X2PzOAo4T-154" value="1&lt;div&gt;&lt;br&gt;&lt;/div&gt;" style="text;html=1;align=center;verticalAlign=middle;resizable=0;points=[];autosize=1;strokeColor=none;fillColor=none;" parent="1" vertex="1">
          <mxGeometry x="90" y="250" width="30" height="40" as="geometry" />
        </mxCell>
        <mxCell id="N-ZbYUrMgR0X2PzOAo4T-155" value="1" style="text;html=1;align=center;verticalAlign=middle;resizable=0;points=[];autosize=1;strokeColor=none;fillColor=none;" parent="1" vertex="1">
          <mxGeometry x="25" y="548" width="30" height="30" as="geometry" />
        </mxCell>
        <mxCell id="4x3vKlacIYbMNnF0Afm2-1" value="join" style="rhombus;whiteSpace=wrap;html=1;" vertex="1" parent="1">
          <mxGeometry x="570" y="-50" width="80" height="80" as="geometry" />
        </mxCell>
        <mxCell id="4x3vKlacIYbMNnF0Afm2-2" value="" style="endArrow=none;html=1;rounded=0;entryX=0;entryY=0.5;entryDx=0;entryDy=0;exitX=0.067;exitY=0.767;exitDx=0;exitDy=0;exitPerimeter=0;" edge="1" parent="1" source="4x3vKlacIYbMNnF0Afm2-4" target="4x3vKlacIYbMNnF0Afm2-1">
          <mxGeometry width="50" height="50" relative="1" as="geometry">
            <mxPoint x="350" y="60" as="sourcePoint" />
            <mxPoint x="400" y="10" as="targetPoint" />
          </mxGeometry>
        </mxCell>
        <mxCell id="4x3vKlacIYbMNnF0Afm2-3" value="" style="endArrow=none;html=1;rounded=0;exitX=1;exitY=0.5;exitDx=0;exitDy=0;" edge="1" parent="1" source="4x3vKlacIYbMNnF0Afm2-1">
          <mxGeometry width="50" height="50" relative="1" as="geometry">
            <mxPoint x="700" as="sourcePoint" />
            <mxPoint x="750" y="-50" as="targetPoint" />
          </mxGeometry>
        </mxCell>
        <mxCell id="4x3vKlacIYbMNnF0Afm2-5" value="" style="endArrow=none;html=1;rounded=0;entryX=0;entryY=0.5;entryDx=0;entryDy=0;" edge="1" parent="1" target="4x3vKlacIYbMNnF0Afm2-4">
          <mxGeometry width="50" height="50" relative="1" as="geometry">
            <mxPoint x="350" y="60" as="sourcePoint" />
            <mxPoint x="570" y="-10" as="targetPoint" />
          </mxGeometry>
        </mxCell>
        <mxCell id="4x3vKlacIYbMNnF0Afm2-4" value="1" style="text;html=1;align=center;verticalAlign=middle;resizable=0;points=[];autosize=1;strokeColor=none;fillColor=none;" vertex="1" parent="1">
          <mxGeometry x="350" y="35" width="30" height="30" as="geometry" />
        </mxCell>
        <mxCell id="4x3vKlacIYbMNnF0Afm2-6" value="1" style="text;html=1;align=center;verticalAlign=middle;resizable=0;points=[];autosize=1;strokeColor=none;fillColor=none;" vertex="1" parent="1">
          <mxGeometry x="715" y="-72" width="30" height="30" as="geometry" />
        </mxCell>
        <mxCell id="4x3vKlacIYbMNnF0Afm2-7" value="linked" style="rhombus;whiteSpace=wrap;html=1;" vertex="1" parent="1">
          <mxGeometry x="330" y="700" width="80" height="80" as="geometry" />
        </mxCell>
        <mxCell id="4x3vKlacIYbMNnF0Afm2-8" value="" style="endArrow=none;html=1;rounded=0;exitX=1;exitY=0.5;exitDx=0;exitDy=0;entryX=0;entryY=0;entryDx=0;entryDy=0;" edge="1" parent="1" source="4x3vKlacIYbMNnF0Afm2-7" target="N-ZbYUrMgR0X2PzOAo4T-11">
          <mxGeometry width="50" height="50" relative="1" as="geometry">
            <mxPoint x="550" y="810" as="sourcePoint" />
            <mxPoint x="600" y="760" as="targetPoint" />
          </mxGeometry>
        </mxCell>
        <mxCell id="4x3vKlacIYbMNnF0Afm2-9" value="" style="endArrow=none;html=1;rounded=0;exitX=1;exitY=0.5;exitDx=0;exitDy=0;entryX=0.011;entryY=0.5;entryDx=0;entryDy=0;entryPerimeter=0;" edge="1" parent="1" source="N-ZbYUrMgR0X2PzOAo4T-2" target="4x3vKlacIYbMNnF0Afm2-7">
          <mxGeometry width="50" height="50" relative="1" as="geometry">
            <mxPoint x="210" y="705" as="sourcePoint" />
            <mxPoint x="260" y="655" as="targetPoint" />
          </mxGeometry>
        </mxCell>
        <mxCell id="4x3vKlacIYbMNnF0Afm2-10" value="1" style="text;html=1;align=center;verticalAlign=middle;resizable=0;points=[];autosize=1;strokeColor=none;fillColor=none;" vertex="1" parent="1">
          <mxGeometry x="115" y="578" width="30" height="30" as="geometry" />
        </mxCell>
        <mxCell id="4x3vKlacIYbMNnF0Afm2-11" value="M" style="text;html=1;align=center;verticalAlign=middle;resizable=0;points=[];autosize=1;strokeColor=none;fillColor=none;" vertex="1" parent="1">
          <mxGeometry x="570" y="760" width="30" height="30" as="geometry" />
        </mxCell>
        <mxCell id="4x3vKlacIYbMNnF0Afm2-12" value="has" style="rhombus;whiteSpace=wrap;html=1;" vertex="1" parent="1">
          <mxGeometry x="210" y="150" width="80" height="80" as="geometry" />
        </mxCell>
        <mxCell id="4x3vKlacIYbMNnF0Afm2-13" value="" style="endArrow=none;html=1;rounded=0;entryX=0.25;entryY=1;entryDx=0;entryDy=0;exitX=0.5;exitY=0;exitDx=0;exitDy=0;" edge="1" parent="1" source="4x3vKlacIYbMNnF0Afm2-12" target="N-ZbYUrMgR0X2PzOAo4T-5">
          <mxGeometry width="50" height="50" relative="1" as="geometry">
            <mxPoint x="240" y="125" as="sourcePoint" />
            <mxPoint x="290" y="75" as="targetPoint" />
          </mxGeometry>
        </mxCell>
        <mxCell id="4x3vKlacIYbMNnF0Afm2-14" value="" style="endArrow=none;html=1;rounded=0;exitX=1;exitY=0.75;exitDx=0;exitDy=0;entryX=0.5;entryY=1;entryDx=0;entryDy=0;" edge="1" parent="1" source="N-ZbYUrMgR0X2PzOAo4T-1" target="4x3vKlacIYbMNnF0Afm2-12">
          <mxGeometry width="50" height="50" relative="1" as="geometry">
            <mxPoint x="160" y="240" as="sourcePoint" />
            <mxPoint x="210" y="190" as="targetPoint" />
          </mxGeometry>
        </mxCell>
        <mxCell id="4x3vKlacIYbMNnF0Afm2-15" value="has" style="rhombus;whiteSpace=wrap;html=1;" vertex="1" parent="1">
          <mxGeometry x="620" y="440" width="80" height="80" as="geometry" />
        </mxCell>
        <mxCell id="4x3vKlacIYbMNnF0Afm2-16" value="1&lt;div&gt;&lt;br&gt;&lt;/div&gt;" style="text;html=1;align=center;verticalAlign=middle;resizable=0;points=[];autosize=1;strokeColor=none;fillColor=none;" vertex="1" parent="1">
          <mxGeometry x="235" y="70" width="30" height="40" as="geometry" />
        </mxCell>
        <mxCell id="4x3vKlacIYbMNnF0Afm2-17" value="1&lt;div&gt;&lt;br&gt;&lt;/div&gt;" style="text;html=1;align=center;verticalAlign=middle;resizable=0;points=[];autosize=1;strokeColor=none;fillColor=none;" vertex="1" parent="1">
          <mxGeometry x="120" y="205" width="30" height="40" as="geometry" />
        </mxCell>
        <mxCell id="4x3vKlacIYbMNnF0Afm2-18" value="" style="endArrow=none;html=1;rounded=0;exitX=1;exitY=0.5;exitDx=0;exitDy=0;entryX=0.25;entryY=0;entryDx=0;entryDy=0;" edge="1" parent="1" source="4x3vKlacIYbMNnF0Afm2-15" target="N-ZbYUrMgR0X2PzOAo4T-7">
          <mxGeometry width="50" height="50" relative="1" as="geometry">
            <mxPoint x="872.5" y="575" as="sourcePoint" />
            <mxPoint x="922.5" y="525" as="targetPoint" />
          </mxGeometry>
        </mxCell>
        <mxCell id="4x3vKlacIYbMNnF0Afm2-19" value="" style="endArrow=none;html=1;rounded=0;exitX=0;exitY=0.875;exitDx=0;exitDy=0;exitPerimeter=0;entryX=0;entryY=0.5;entryDx=0;entryDy=0;" edge="1" parent="1" source="4x3vKlacIYbMNnF0Afm2-17" target="4x3vKlacIYbMNnF0Afm2-15">
          <mxGeometry width="50" height="50" relative="1" as="geometry">
            <mxPoint x="160" y="327.5" as="sourcePoint" />
            <mxPoint x="210" y="277.5" as="targetPoint" />
          </mxGeometry>
        </mxCell>
        <mxCell id="4x3vKlacIYbMNnF0Afm2-20" value="M" style="text;html=1;align=center;verticalAlign=middle;resizable=0;points=[];autosize=1;strokeColor=none;fillColor=none;" vertex="1" parent="1">
          <mxGeometry x="145" y="230" width="30" height="30" as="geometry" />
        </mxCell>
        <mxCell id="4x3vKlacIYbMNnF0Afm2-21" value="M" style="text;html=1;align=center;verticalAlign=middle;resizable=0;points=[];autosize=1;strokeColor=none;fillColor=none;" vertex="1" parent="1">
          <mxGeometry x="950" y="560" width="30" height="30" as="geometry" />
        </mxCell>
        <mxCell id="4x3vKlacIYbMNnF0Afm2-22" value="can" style="rhombus;whiteSpace=wrap;html=1;" vertex="1" parent="1">
          <mxGeometry x="1075" y="260" width="80" height="80" as="geometry" />
        </mxCell>
        <mxCell id="4x3vKlacIYbMNnF0Afm2-24" value="" style="endArrow=none;html=1;rounded=0;exitX=1;exitY=0.5;exitDx=0;exitDy=0;entryX=0.5;entryY=0;entryDx=0;entryDy=0;" edge="1" parent="1" source="4x3vKlacIYbMNnF0Afm2-22" target="N-ZbYUrMgR0X2PzOAo4T-6">
          <mxGeometry width="50" height="50" relative="1" as="geometry">
            <mxPoint x="1215" y="370" as="sourcePoint" />
            <mxPoint x="1265" y="320" as="targetPoint" />
          </mxGeometry>
        </mxCell>
        <mxCell id="4x3vKlacIYbMNnF0Afm2-25" value="" style="endArrow=none;html=1;rounded=0;exitX=0.75;exitY=1;exitDx=0;exitDy=0;entryX=0;entryY=0.5;entryDx=0;entryDy=0;" edge="1" parent="1" source="N-ZbYUrMgR0X2PzOAo4T-8" target="4x3vKlacIYbMNnF0Afm2-22">
          <mxGeometry width="50" height="50" relative="1" as="geometry">
            <mxPoint x="1040" y="235" as="sourcePoint" />
            <mxPoint x="1090" y="185" as="targetPoint" />
          </mxGeometry>
        </mxCell>
        <mxCell id="4x3vKlacIYbMNnF0Afm2-26" value="M" style="text;html=1;align=center;verticalAlign=middle;resizable=0;points=[];autosize=1;strokeColor=none;fillColor=none;" vertex="1" parent="1">
          <mxGeometry x="1310" y="370" width="30" height="30" as="geometry" />
        </mxCell>
        <mxCell id="4x3vKlacIYbMNnF0Afm2-27" value="1&lt;div&gt;&lt;br&gt;&lt;/div&gt;" style="text;html=1;align=center;verticalAlign=middle;resizable=0;points=[];autosize=1;strokeColor=none;fillColor=none;" vertex="1" parent="1">
          <mxGeometry x="1032.5" y="170" width="30" height="40" as="geometry" />
        </mxCell>
        <mxCell id="4x3vKlacIYbMNnF0Afm2-28" value="can" style="rhombus;whiteSpace=wrap;html=1;direction=south;" vertex="1" parent="1">
          <mxGeometry x="840" y="2.5" width="80" height="80" as="geometry" />
        </mxCell>
        <mxCell id="4x3vKlacIYbMNnF0Afm2-29" value="" style="endArrow=none;html=1;rounded=0;exitX=0.5;exitY=1;exitDx=0;exitDy=0;entryX=0;entryY=0.5;entryDx=0;entryDy=0;" edge="1" parent="1" source="N-ZbYUrMgR0X2PzOAo4T-10" target="4x3vKlacIYbMNnF0Afm2-28">
          <mxGeometry width="50" height="50" relative="1" as="geometry">
            <mxPoint x="810" y="35" as="sourcePoint" />
            <mxPoint x="860" y="-15" as="targetPoint" />
          </mxGeometry>
        </mxCell>
        <mxCell id="4x3vKlacIYbMNnF0Afm2-30" value="" style="endArrow=none;html=1;rounded=0;exitX=1;exitY=0.5;exitDx=0;exitDy=0;entryX=0.351;entryY=-0.062;entryDx=0;entryDy=0;entryPerimeter=0;" edge="1" parent="1" source="4x3vKlacIYbMNnF0Afm2-28" target="N-ZbYUrMgR0X2PzOAo4T-8">
          <mxGeometry width="50" height="50" relative="1" as="geometry">
            <mxPoint x="912.5" y="115" as="sourcePoint" />
            <mxPoint x="962.5" y="65" as="targetPoint" />
          </mxGeometry>
        </mxCell>
        <mxCell id="4x3vKlacIYbMNnF0Afm2-31" value="M" style="text;html=1;align=center;verticalAlign=middle;resizable=0;points=[];autosize=1;strokeColor=none;fillColor=none;" vertex="1" parent="1">
          <mxGeometry x="955" y="88" width="30" height="30" as="geometry" />
        </mxCell>
        <mxCell id="4x3vKlacIYbMNnF0Afm2-32" value="M" style="text;html=1;align=center;verticalAlign=middle;resizable=0;points=[];autosize=1;strokeColor=none;fillColor=none;" vertex="1" parent="1">
          <mxGeometry x="835" y="-42" width="30" height="30" as="geometry" />
        </mxCell>
      </root>
    </mxGraphModel>
  </diagram>
</mxfile>
